# xmcd
#
# Track frame offsets: 
#        150
#        16300
#        28385
#        37762
#        50150
#        62832
#        72982
#        87020
#        105412
#        120157
#        135882
#        150227
#        159615
#        172955
#        183030
#        192557
#        205542
#        221877
#        238292
#        248802
#        257895
#        269415
#        282510
#        293255
#        306295
#
# Disc length: 4230 seconds
#
# Revision: 2
# Processed by: cddbd v1.5.2PL0 Copyright (c) Steve Scherf et al.
# Submitted via: ExactAudioCopy v0.99pb5
#
DISCID=5d108419
DTITLE=Various Artist - Country Evergreens  CD 2 of 4
DYEAR=1900
DGENRE=Country
TTITLE0=Kenny Rogers - Lucille  1977
TTITLE1=Dolly Parton - The Bargain Store  1975
TTITLE2=The Cattlemen - The yellow rose of Texas  1963
TTITLE3=Dr. Hook - Only Sixteen  1987
TTITLE4=Jonny Cash - Folsom Prison Blues  1968
TTITLE5=Gene Martin - The wreck of the old 97  1963
TTITLE6=Glenn Campbell - Wichita Lineman  1988
TTITLE7=Charley Pride - Where di I put her memory 
TTITLE8=Bobby Sykes and Lou Darnell - On top of old smoky  1963
TTITLE9=Kenny Rogers - The Gambler  1978
TTITLE10=Red Foley - Peace in the valley  1951
TTITLE11=Porter Wagoner and Dolly Parton - Oh, the pain of loving you  1
TTITLE11=971
TTITLE12=Dolly Parton - Here you come again  1977
TTITLE13=George Hamilton - Abilene  1963
TTITLE14=Bobby Sykes - Tennesee Waltz  1963
TTITLE15=The Browns - The three bells  1959
TTITLE16=Anne Murray - You needed me  1978
TTITLE17=Frank Sanders - Kentucky babe  1963
TTITLE18=Connie Smith - Once a day  1964
TTITLE19=Jim Reeves - I won't forget you  1962
TTITLE20=Don Reno and Bobby Thompson - The ballad of Jed Clampett  1982
TTITLE21=Tennesee Ernie Ford - The Ballad of Davy Crockett
TTITLE22=Waylon Jennings - This time  1974
TTITLE23=The Cattlemen - Bury me not on the lone Prairie  1963
TTITLE24=Willie Nelson - Phases and Stages  1972
EXTD=
EXTT0=
EXTT1=
EXTT2=
EXTT3=
EXTT4=
EXTT5=
EXTT6=
EXTT7=
EXTT8=
EXTT9=
EXTT10=
EXTT11=
EXTT12=
EXTT13=
EXTT14=
EXTT15=
EXTT16=
EXTT17=
EXTT18=
EXTT19=
EXTT20=
EXTT21=
EXTT22=
EXTT23=
EXTT24=
PLAYORDER=
